<svg width="88" height="87" viewBox="0 0 88 87" fill="none" xmlns="http://www.w3.org/2000/svg">
<g id="ic:round-manage-accounts">
<path id="Vector" d="M39.1788 47.1975C38.3813 47.1613 37.5837 47.125 36.75 47.125C27.9775 47.125 19.785 49.5537 12.7888 53.7225C9.59875 55.6075 7.75 59.16 7.75 62.8938V68.875C7.75 70.8687 9.38125 72.5 11.375 72.5H41.3175C38.7571 68.8476 37.2103 64.5819 36.8347 60.1373C36.459 55.6927 37.2678 51.2279 39.1788 47.1975Z" fill="#D1D1D1"/>
<path id="Vector_2" d="M36.75 43.5C44.7581 43.5 51.25 37.0081 51.25 29C51.25 20.9919 44.7581 14.5 36.75 14.5C28.7419 14.5 22.25 20.9919 22.25 29C22.25 37.0081 28.7419 43.5 36.75 43.5Z" fill="#D1D1D1"/>
<path id="Vector_3" d="M75.7197 57.9999C75.7197 57.2024 75.6109 56.4774 75.5022 55.7161L78.5472 53.0699C79.1997 52.4899 79.3447 51.5474 78.9097 50.7861L76.7709 47.0886C76.566 46.7245 76.2388 46.4447 75.8474 46.2988C75.4559 46.1528 75.0254 46.1501 74.6322 46.2911L70.7897 47.5961C69.6297 46.6174 68.3247 45.8561 66.8747 45.3124L66.0772 41.3611C65.9917 40.9527 65.7688 40.5859 65.4455 40.322C65.1222 40.0581 64.7182 39.9131 64.3009 39.9111H60.0234C59.1534 39.9111 58.4284 40.5274 58.2472 41.3611L57.4497 45.3124C55.9997 45.8561 54.6947 46.6174 53.5347 47.5961L49.6922 46.2911C49.2985 46.1559 48.87 46.1615 48.48 46.307C48.09 46.4524 47.7625 46.7287 47.5534 47.0886L45.4147 50.7861C44.9797 51.5474 45.1247 52.4899 45.7772 53.0699L48.8222 55.7161C48.7134 56.4774 48.6047 57.2024 48.6047 57.9999C48.6047 58.7974 48.7134 59.5224 48.8222 60.2836L45.7772 62.9299C45.1247 63.5099 44.9797 64.4524 45.4147 65.2136L47.5534 68.9111C47.9884 69.6724 48.8947 69.9986 49.6922 69.7086L53.5347 68.4036C54.6947 69.3824 55.9997 70.1436 57.4497 70.6874L58.2472 74.6386C58.4284 75.4724 59.1534 76.0886 60.0234 76.0886H64.3009C65.1709 76.0886 65.8959 75.4724 66.0772 74.6386L66.8747 70.6874C68.3247 70.1436 69.6297 69.3824 70.7897 68.4036L74.6322 69.7086C75.4659 69.9986 76.3359 69.6361 76.7709 68.9111L78.9097 65.2136C79.3447 64.4524 79.1997 63.5099 78.5472 62.9299L75.5022 60.2836C75.6109 59.5224 75.7197 58.7974 75.7197 57.9999ZM62.1259 65.2499C58.1384 65.2499 54.8759 61.9874 54.8759 57.9999C54.8759 54.0124 58.1384 50.7499 62.1259 50.7499C66.1134 50.7499 69.3759 54.0124 69.3759 57.9999C69.3759 61.9874 66.1134 65.2499 62.1259 65.2499Z" fill="#D1D1D1"/>
</g>
</svg>
