<svg width="24" height="24" viewBox="0 0 24 24" fill="none" xmlns="http://www.w3.org/2000/svg">
<g id="settings_black_24dp_1_" clip-path="url(#clip0_402_1264)">
<path id="Path 4070" d="M19.4306 12.98C19.4745 12.6552 19.4979 12.3279 19.5006 12C19.4979 11.6722 19.4745 11.3449 19.4306 11.02L21.5406 9.37005C21.6338 9.29528 21.6971 9.18965 21.7191 9.07226C21.7411 8.95487 21.7204 8.83347 21.6606 8.73005L19.6606 5.27005C19.6162 5.193 19.5519 5.12922 19.4746 5.08527C19.3972 5.04132 19.3096 5.01881 19.2206 5.02005C19.1626 5.0194 19.1049 5.02957 19.0506 5.05005L16.5606 6.05005C16.0437 5.6492 15.4753 5.31958 14.8706 5.07005L14.4906 2.42005C14.4741 2.30239 14.4152 2.19481 14.325 2.11748C14.2348 2.04016 14.1194 1.9984 14.0006 2.00005H10.0006C9.88182 1.9984 9.7665 2.04016 9.67628 2.11748C9.58607 2.19481 9.52717 2.30239 9.51063 2.42005L9.13063 5.07005C8.52789 5.32347 7.95996 5.6528 7.44063 6.05005L4.95062 5.05005C4.89264 5.03038 4.83185 5.02025 4.77063 5.02005C4.68337 5.02057 4.59777 5.04393 4.52233 5.08778C4.4469 5.13164 4.38425 5.19448 4.34063 5.27005L2.34062 8.73005C2.27942 8.83308 2.25784 8.95489 2.27993 9.07268C2.30202 9.19047 2.36625 9.29618 2.46063 9.37005L4.57063 11.02C4.52706 11.345 4.50368 11.6722 4.50063 12C4.50368 12.3278 4.52706 12.6551 4.57063 12.98L2.46063 14.63C2.36748 14.7048 2.30417 14.8104 2.28216 14.9278C2.26015 15.0452 2.28089 15.1666 2.34062 15.27L4.34063 18.73C4.3851 18.8071 4.44932 18.8709 4.52666 18.9148C4.60401 18.9588 4.69168 18.9813 4.78063 18.98C4.83866 18.9807 4.89631 18.9705 4.95062 18.95L7.44063 17.95C7.95755 18.3509 8.52596 18.6805 9.13063 18.93L9.51063 21.58C9.52717 21.6977 9.58607 21.8053 9.67628 21.8826C9.7665 21.9599 9.88182 22.0017 10.0006 22H14.0006C14.1194 22.0017 14.2348 21.9599 14.325 21.8826C14.4152 21.8053 14.4741 21.6977 14.4906 21.58L14.8706 18.93C15.4734 18.6766 16.0413 18.3473 16.5606 17.95L19.0506 18.95C19.1086 18.9697 19.1694 18.9798 19.2306 18.98C19.3179 18.9795 19.4035 18.9562 19.4789 18.9123C19.5544 18.8685 19.617 18.8056 19.6606 18.73L21.6606 15.27C21.7204 15.1666 21.7411 15.0452 21.7191 14.9278C21.6971 14.8104 21.6338 14.7048 21.5406 14.63L19.4306 12.98ZM17.4506 11.27C17.484 11.512 17.5007 11.7559 17.5006 12C17.5006 12.21 17.4806 12.43 17.4506 12.73L17.3106 13.86L18.2006 14.56L19.2806 15.4L18.5806 16.61L17.3106 16.1L16.2706 15.68L15.3706 16.36C14.9857 16.6541 14.5659 16.8993 14.1206 17.09L13.0606 17.52L12.9006 18.65L12.7006 20H11.3006L11.1106 18.65L10.9506 17.52L9.89063 17.09C9.45251 16.9058 9.03927 16.6673 8.66062 16.38L7.75063 15.68L6.69063 16.11L5.42063 16.62L4.72062 15.41L5.80063 14.57L6.69063 13.87L6.55063 12.74C6.52063 12.43 6.50063 12.2 6.50063 12C6.50063 11.8 6.52063 11.57 6.55063 11.27L6.69063 10.14L5.80063 9.44005L4.72062 8.60005L5.42063 7.39005L6.69063 7.90005L7.73063 8.32005L8.63063 7.64005C9.0155 7.34596 9.43538 7.10076 9.88063 6.91005L10.9406 6.48005L11.1006 5.35005L11.3006 4.00005H12.6906L12.8806 5.35005L13.0406 6.48005L14.1006 6.91005C14.5387 7.09426 14.952 7.3328 15.3306 7.62005L16.2406 8.32005L17.3006 7.89005L18.5706 7.38005L19.2706 8.59005L18.2006 9.44005L17.3106 10.14L17.4506 11.27ZM12.0006 8.00005C11.2095 8.00005 10.4361 8.23464 9.77834 8.67417C9.12055 9.11369 8.60786 9.73841 8.30511 10.4693C8.00236 11.2002 7.92314 12.0045 8.07748 12.7804C8.23182 13.5563 8.61279 14.2691 9.1722 14.8285C9.73161 15.3879 10.4443 15.7688 11.2203 15.9232C11.9962 16.0775 12.8005 15.9983 13.5314 15.6956C14.2623 15.3928 14.887 14.8801 15.3265 14.2223C15.766 13.5645 16.0006 12.7912 16.0006 12C16.0006 10.9392 15.5792 9.92176 14.8291 9.17162C14.0789 8.42147 13.0615 8.00005 12.0006 8.00005ZM12.0006 14C11.6051 14 11.2184 13.8827 10.8895 13.663C10.5606 13.4432 10.3042 13.1309 10.1529 12.7654C10.0015 12.4 9.96188 11.9978 10.0391 11.6099C10.1162 11.2219 10.3067 10.8655 10.5864 10.5858C10.8661 10.3061 11.2225 10.1156 11.6104 10.0385C11.9984 9.96131 12.4005 10.0009 12.766 10.1523C13.1314 10.3037 13.4438 10.56 13.6636 10.8889C13.8833 11.2178 14.0006 11.6045 14.0006 12C13.999 12.53 13.7878 13.0378 13.4131 13.4125C13.0384 13.7872 12.5306 13.9985 12.0006 14Z" fill="black"/>
</g>
<defs>
<clipPath id="clip0_402_1264">
<rect width="24" height="24" fill="white"/>
</clipPath>
</defs>
</svg>
