<svg width="1354" height="494" viewBox="0 0 1354 494" fill="none" xmlns="http://www.w3.org/2000/svg">
<path d="M1049.33 448.061V491.034H1112.15H1181.42V448.061H1049.33Z" fill="#F5F5F5"/>
<path d="M1043.8 436.051V448.06H1186.04V436.051H1112.15H1043.8Z" fill="#EBEBEB"/>
<path d="M1114.91 491.033H1181.42V448.06H1186.04V436.051H1112.15V446.953L1114.91 491.033Z" fill="#EBEBEB"/>
<path d="M1094.59 454.992H1067.8V461.467H1094.59V454.992Z" fill="#E0E0E0"/>
<path d="M1098.77 469.547H1064.36V483.203H1098.77V469.547Z" fill="white"/>
<path d="M1069.65 393.133V436.106H1132.47H1201.74V393.133H1069.65Z" fill="#F5F5F5"/>
<path d="M1064.11 381.109V393.133H1206.36V381.109H1132.47H1064.11Z" fill="#EBEBEB"/>
<path d="M1135.24 436.106H1201.75V393.133H1206.37V381.109H1132.47V392.012L1135.24 436.106Z" fill="#EBEBEB"/>
<path d="M1114.91 400.064H1088.13V406.54H1114.91V400.064Z" fill="#E0E0E0"/>
<path d="M1119.09 414.619H1084.68V428.275H1119.09V414.619Z" fill="white"/>
<path d="M1354 491.366C1354 491.559 1185.2 491.725 977.018 491.725C768.837 491.725 0 491.559 0 491.366C0 491.172 768.767 491.006 977.018 491.006C1185.27 491.006 1354 491.172 1354 491.366Z" fill="#263238"/>
<path d="M1292.23 419.918C1310.33 412.226 1331.3 397.103 1340.64 378.563C1321.12 386.408 1303.9 401.129 1292.23 419.918Z" fill="#263238"/>
<path d="M1296.09 391.14C1314.19 383.447 1335.16 368.325 1344.5 349.785C1324.98 357.63 1307.76 372.351 1296.09 391.14Z" fill="#263238"/>
<path d="M1301.32 363.151C1319.42 355.458 1340.38 340.336 1349.73 321.796C1330.21 329.641 1312.99 344.362 1301.32 363.151Z" fill="#263238"/>
<path d="M1307.89 333.847C1324.96 323.705 1344 305.802 1351.1 286.142C1332.62 296.643 1317.25 313.605 1307.89 333.847Z" fill="#263238"/>
<path d="M1314.91 311.419C1327.36 295.135 1338.96 270.895 1338.81 249.893C1325.19 267.076 1316.68 288.964 1314.91 311.419Z" fill="#263238"/>
<path d="M1311.43 322.073C1308.91 300.047 1300.35 272.361 1285.82 255.842C1288.13 279.445 1297.24 302.994 1311.43 322.073Z" fill="#263238"/>
<path d="M1305.58 346.161C1301.16 323.456 1289.96 295.37 1273.45 279.445C1277.79 303.81 1289.22 327.538 1305.58 346.161Z" fill="#263238"/>
<path d="M1298.86 375.547C1294.44 352.843 1283.24 324.757 1266.73 308.832C1271.07 333.197 1282.5 356.925 1298.86 375.547Z" fill="#263238"/>
<path d="M1293.47 411.603C1289.04 388.899 1277.84 360.812 1261.33 344.888C1265.67 369.252 1277.11 392.98 1293.47 411.603Z" fill="#263238"/>
<path d="M1315.75 307.103C1315.75 307.103 1315.7 307.213 1315.62 307.448C1315.52 307.711 1315.41 308.057 1315.27 308.458C1314.97 309.413 1314.55 310.727 1314.01 312.388C1312.92 315.805 1311.45 320.772 1309.73 326.943C1308 333.113 1306.09 340.488 1304.11 348.734C1302.18 356.98 1300.21 366.084 1298.4 375.686C1296.6 385.301 1295.14 394.488 1293.95 402.886C1292.79 411.271 1291.89 418.853 1291.27 425.231C1290.63 431.609 1290.2 436.77 1289.97 440.339C1289.86 442.083 1289.77 443.466 1289.7 444.449C1289.69 444.891 1289.66 445.237 1289.65 445.514C1289.65 445.749 1289.65 445.874 1289.65 445.887C1289.65 445.887 1289.68 445.763 1289.72 445.528C1289.75 445.251 1289.79 444.891 1289.84 444.462C1289.94 443.466 1290.06 442.096 1290.23 440.353C1290.53 436.784 1291.04 431.637 1291.75 425.272C1292.44 418.908 1293.38 411.354 1294.58 402.969C1295.82 394.599 1297.29 385.412 1299.09 375.81C1300.9 366.222 1302.85 357.118 1304.75 348.872C1306.68 340.64 1308.54 333.252 1310.21 327.067C1311.87 320.883 1313.27 315.902 1314.27 312.471C1314.76 310.783 1315.13 309.468 1315.41 308.5C1315.52 308.071 1315.62 307.739 1315.69 307.462C1315.74 307.227 1315.77 307.103 1315.75 307.103Z" fill="#263238"/>
<path d="M1283.41 431.914C1291.09 415.823 1296.67 393.216 1292.9 375.562C1284.38 392.635 1281.01 412.669 1283.41 431.914Z" fill="#455A64"/>
<path d="M1270.65 411.092C1278.33 395.001 1283.91 372.393 1280.14 354.739C1271.62 371.812 1268.25 391.846 1270.65 411.092Z" fill="#455A64"/>
<path d="M1259.2 389.909C1266.88 373.818 1272.46 351.211 1268.69 333.557C1260.17 350.63 1256.8 370.664 1259.2 389.909Z" fill="#455A64"/>
<path d="M1247.92 367.067C1253.63 350.035 1256.49 326.833 1250.67 309.843C1244.24 327.967 1243.27 348.306 1247.92 367.067Z" fill="#455A64"/>
<path d="M1240.58 348.361C1240.01 330.25 1234.69 307.56 1223.45 294.181C1223.72 313.592 1229.81 332.865 1240.58 348.361Z" fill="#455A64"/>
<path d="M1243.96 357.34C1230.65 344.764 1210.41 332.284 1192.2 330.651C1206.22 344.362 1224.62 353.854 1243.96 357.34Z" fill="#455A64"/>
<path d="M1252.95 376.392C1238.03 364.563 1215.85 353.453 1196.69 353.411C1212.44 366.361 1232.44 374.538 1252.95 376.392Z" fill="#455A64"/>
<path d="M1264.17 399.373C1249.25 387.543 1227.07 376.433 1207.9 376.392C1223.65 389.342 1243.66 397.519 1264.17 399.373Z" fill="#455A64"/>
<path d="M1279.81 425.827C1264.89 413.997 1242.71 402.887 1223.54 402.846C1239.29 415.796 1259.3 423.973 1279.81 425.827Z" fill="#455A64"/>
<path d="M1238.83 345.068C1238.83 345.068 1238.85 345.178 1238.92 345.372C1239 345.607 1239.1 345.884 1239.22 346.23C1239.53 347.032 1239.94 348.111 1240.47 349.481C1241.56 352.304 1243.22 356.371 1245.35 361.338C1249.61 371.3 1255.91 384.886 1263.75 399.441C1267.68 406.719 1271.62 413.54 1275.31 419.683C1279.03 425.798 1282.47 431.263 1285.49 435.76C1288.47 440.27 1290.96 443.881 1292.73 446.344C1293.59 447.534 1294.27 448.475 1294.78 449.167C1295 449.457 1295.18 449.692 1295.32 449.886C1295.44 450.052 1295.51 450.121 1295.53 450.121C1295.53 450.121 1295.48 450.024 1295.37 449.845C1295.24 449.637 1295.08 449.388 1294.89 449.084C1294.42 448.378 1293.77 447.409 1292.95 446.192C1291.25 443.688 1288.83 440.035 1285.89 435.497C1282.94 430.959 1279.54 425.494 1275.85 419.365C1272.2 413.208 1268.29 406.387 1264.36 399.123C1256.53 384.582 1250.16 371.051 1245.79 361.145C1243.6 356.191 1241.88 352.165 1240.71 349.37C1240.13 348.015 1239.68 346.949 1239.35 346.161C1239.19 345.829 1239.07 345.552 1238.97 345.33C1238.89 345.151 1238.83 345.054 1238.82 345.054L1238.83 345.068Z" fill="#263238"/>
<path d="M1246.86 433.851H1323.13V448.572H1315.29L1308.69 490.521H1261.54L1254.75 448.572H1246.86V433.851Z" fill="#F58634"/>
<path d="M1246.86 448.253C1246.86 448.06 1263.81 447.894 1284.71 447.894C1305.62 447.894 1322.57 448.046 1322.57 448.253C1322.57 448.461 1305.62 448.613 1284.71 448.613C1263.81 448.613 1246.86 448.461 1246.86 448.253Z" fill="#263238"/>
<path d="M107.044 488.279H94.6688L90.0781 432.521H104.652L107.044 488.279Z" fill="#263238"/>
<path d="M214.328 488.279H226.717L231.308 432.521H216.72L214.328 488.279Z" fill="#263238"/>
<path d="M239.812 439.578L80.4667 443.327L75.6134 340.349C75.1433 330.263 83.1769 321.837 93.2708 321.837H229.027C239.273 321.837 247.376 330.526 246.656 340.75L239.798 439.592L239.812 439.578Z" fill="#F58634"/>
<path d="M247.984 339.989C247.984 339.989 247.831 340.016 247.541 340.03C247.209 340.03 246.781 340.058 246.241 340.072C245.052 340.086 243.365 340.113 241.222 340.141C236.811 340.155 230.52 340.183 222.749 340.21C207.152 340.238 185.609 340.058 161.826 340.611C138.029 341.4 116.472 341.262 100.875 341.026C93.0768 340.902 86.7716 340.75 82.4022 340.625C80.2589 340.556 78.572 340.501 77.3829 340.459C76.8436 340.432 76.415 340.418 76.0831 340.39C75.7927 340.376 75.6406 340.362 75.6406 340.349C75.6406 340.335 75.7927 340.321 76.0831 340.321C76.415 340.321 76.8436 340.321 77.3829 340.321C78.572 340.321 80.2589 340.349 82.4022 340.362C86.813 340.404 93.1044 340.459 100.875 340.542C116.472 340.653 138.015 340.708 161.812 339.906C185.609 339.352 207.165 339.615 222.763 339.712C230.52 339.781 236.825 339.837 241.236 339.878C243.379 339.906 245.066 339.92 246.255 339.934C246.794 339.934 247.223 339.961 247.555 339.961C247.845 339.961 247.997 339.989 247.997 340.003L247.984 339.989Z" fill="#263238"/>
<path d="M133.743 323.442C133.784 323.677 128.751 323.774 123.4 326.555C118.008 329.266 114.979 333.292 114.813 333.113C114.744 333.071 115.408 332.006 116.791 330.553C118.174 329.1 120.344 327.316 123.082 325.918C125.82 324.521 128.544 323.815 130.521 323.552C132.512 323.289 133.757 323.372 133.757 323.455L133.743 323.442Z" fill="#263238"/>
<path d="M199.285 136.205L218.768 171.804L247.307 155.838L261.176 160.417C261.176 160.417 226.165 198.396 220.482 200.333C214.799 202.27 204.042 202.616 197.902 194.923C192.302 187.909 176 151.092 176 151.092L199.285 136.205Z" fill="#FFBE9D"/>
<path d="M279.469 112.961C278.957 112.339 278.169 112.02 277.367 112.131L263.802 113.999C262.613 114.179 261.562 114.871 260.899 115.881L232.719 159.214L234.89 160.431L249.892 159.961L279.897 113.501L279.469 112.975V112.961Z" fill="#263238"/>
<path d="M269.858 118.592C270.149 118.841 270.66 118.745 270.992 118.357C271.324 117.97 271.365 117.458 271.075 117.195C270.785 116.932 270.273 117.043 269.941 117.43C269.609 117.818 269.568 118.33 269.858 118.592Z" fill="white"/>
<path d="M279.898 113.487C279.898 113.487 278.972 113.722 277.271 114.012C275.432 114.303 273.012 114.677 270.081 115.133C268.546 115.354 266.887 115.604 265.103 115.866C264.246 115.949 263.485 116.392 263.001 117.098C262.476 117.9 261.95 118.744 261.397 119.588C259.171 123.006 256.751 126.755 254.207 130.684C249.077 138.543 244.403 145.641 240.988 150.76C239.329 153.223 237.946 155.256 236.909 156.792C235.927 158.203 235.36 158.978 235.319 158.937C235.277 158.909 235.748 158.079 236.646 156.612C237.628 155.035 238.942 152.96 240.518 150.442C243.809 145.253 248.413 138.1 253.543 130.242C256.115 126.326 258.563 122.591 260.789 119.173C261.356 118.329 261.895 117.499 262.434 116.683C263.029 115.797 264.066 115.244 265.02 115.188C266.804 114.967 268.477 114.746 270.012 114.552C272.957 114.206 275.404 113.916 277.243 113.694C278.958 113.514 279.898 113.431 279.912 113.487H279.898Z" fill="#455A64"/>
<path d="M264.838 128.983C264.838 128.983 263.622 128.762 262.972 132.082C262.308 135.389 260.179 144.894 260.179 144.894L253.846 141.532L245.923 142.57C245.923 142.57 244.194 144.175 245.466 145.033C246.739 145.904 251.744 146.79 251.744 146.79L255.436 152.103L244.83 146.983C244.83 146.983 241.291 147.91 242.328 150.069C243.365 152.227 250.513 158.993 250.513 158.993L245.204 158.592L238.885 154.759C238.885 154.759 236.949 154.842 237.668 156.502C238.387 158.149 244.969 164.126 244.969 164.126L252.933 168C252.933 168 257.289 167.654 257.704 166.381C258.118 165.108 258.229 163.282 258.229 163.282C258.229 163.282 260.538 162.659 260.967 161.538C261.395 160.418 261.119 158.647 261.119 158.647C261.119 158.647 264.742 159.283 265.198 157.263C265.654 155.243 265.267 151.259 264.908 149.709C264.548 148.159 266.456 133.701 266.304 133.259C266.152 132.816 267.134 128.056 264.866 129.011L264.838 128.983Z" fill="#FFBE9D"/>
<path d="M257.964 166.367C257.992 166.464 257.218 166.796 255.89 167.017C254.563 167.238 252.655 167.252 250.636 166.782C248.617 166.298 246.93 165.426 245.838 164.623C244.746 163.835 244.206 163.185 244.275 163.115C244.428 162.908 246.944 165.094 250.83 165.993C254.687 166.948 257.923 166.132 257.964 166.381V166.367Z" fill="#EB996E"/>
<path d="M256.071 163.517C255.946 163.696 254.536 162.963 253.029 161.718C251.521 160.487 250.512 159.241 250.678 159.089C250.844 158.923 252.075 159.878 253.554 161.095C255.034 162.313 256.209 163.337 256.084 163.517H256.071Z" fill="#EB996E"/>
<path d="M260.276 156.627C260.151 156.806 258.755 156.087 257.344 154.773C255.92 153.472 255.091 152.13 255.27 151.992C255.45 151.853 256.529 152.919 257.898 154.178C259.253 155.437 260.414 156.433 260.276 156.627Z" fill="#EB996E"/>
<path d="M264.674 151.092C264.453 151.189 263.651 149.681 262.392 148.062C261.148 146.416 259.904 145.268 260.042 145.074C260.166 144.894 261.701 145.821 263.028 147.564C264.37 149.294 264.868 151.023 264.66 151.092H264.674Z" fill="#EB996E"/>
<path d="M270.067 407.687C270.067 407.687 270.164 407.217 270.026 406.373C269.887 405.543 269.542 404.325 268.698 403.038C268.477 402.72 268.27 402.388 267.91 402.07C267.578 401.766 266.984 401.53 266.431 401.738C266.154 401.835 265.877 402.084 265.781 402.402C265.67 402.72 265.725 403.038 265.808 403.287C265.988 403.813 266.265 404.187 266.5 404.63C267.011 405.501 267.44 406.359 268.09 407.328C268.422 407.826 269.168 408.241 269.846 408.116C270.523 408.033 271.063 407.701 271.547 407.369C272.487 406.677 273.33 405.902 274.049 405.058C274.409 404.643 274.741 404.214 275.031 403.772C275.308 403.343 275.64 402.9 275.778 402.305C275.902 401.724 275.681 400.963 275.031 400.7C274.367 400.465 273.814 400.797 273.455 401.06C272.694 401.683 272.252 402.333 271.782 402.955C270.911 404.201 270.413 405.335 270.15 406.138C269.887 406.94 269.818 407.397 269.86 407.411C269.998 407.466 270.44 405.626 272.224 403.287C272.667 402.734 273.22 402.056 273.828 401.6C274.146 401.378 274.533 401.226 274.768 401.351C275.017 401.434 275.156 401.821 275.073 402.181C274.99 402.554 274.713 402.955 274.423 403.37C274.132 403.786 273.814 404.187 273.469 404.574C272.777 405.363 271.989 406.096 271.09 406.746C270.662 407.051 270.192 407.314 269.763 407.355C269.32 407.411 268.989 407.231 268.698 406.857C268.145 406.068 267.634 405.086 267.122 404.27C266.873 403.841 266.583 403.426 266.458 403.08C266.32 402.706 266.403 402.457 266.666 402.361C267.26 402.111 267.855 402.789 268.256 403.37C269.943 405.764 269.915 407.756 270.081 407.701L270.067 407.687Z" fill="#263238"/>
<path d="M236.091 408.849L219.222 445.445L191.996 432.854L209.446 387.57L236.091 408.849Z" fill="#FFBE9D"/>
<path d="M222.405 442.996L212.546 461.812C212.546 461.812 237.781 487.92 235.417 493.759L176.098 465.299L192.4 427.569L222.419 443.01L222.405 442.996Z" fill="#455A64"/>
<path d="M195.441 450.439C194.142 450.204 192.731 451.117 192.441 452.404C192.15 453.691 193.063 455.143 194.363 455.392C195.663 455.655 197.391 454.604 197.529 453.303C197.668 451.989 196.506 450.356 195.192 450.412" fill="#E0E0E0"/>
<g opacity="0.6">
<path d="M176.096 465.285L178.557 460.554L234.502 489.608C234.502 489.608 236.59 492.03 235.401 493.745L176.082 465.285H176.096Z" fill="white"/>
</g>
<path d="M213.651 461.965C213.499 462.255 211.992 461.688 210.125 461.937C208.245 462.131 206.917 463.044 206.696 462.795C206.461 462.615 207.719 461.079 209.987 460.83C212.255 460.553 213.845 461.729 213.651 461.965Z" fill="#263238"/>
<path d="M218.642 467.527C218.573 467.845 217.08 467.734 215.518 468.482C213.927 469.187 213.042 470.391 212.752 470.239C212.462 470.156 213.07 468.357 215.047 467.458C217.011 466.545 218.767 467.236 218.642 467.513V467.527Z" fill="#263238"/>
<path d="M218.601 476.672C218.31 476.603 218.601 474.97 220.108 473.739C221.601 472.494 223.274 472.521 223.274 472.826C223.329 473.144 222.03 473.573 220.813 474.597C219.568 475.593 218.905 476.783 218.601 476.672Z" fill="#263238"/>
<path d="M216.485 454.715C216.236 454.922 215.102 453.885 213.415 453.207C211.742 452.501 210.208 452.432 210.166 452.114C210.097 451.823 211.853 451.353 213.83 452.169C215.821 452.972 216.734 454.549 216.485 454.715Z" fill="#263238"/>
<path d="M227.964 438.112L272.432 326.736C272.432 326.736 271.437 307.739 267.938 301.735C264.44 295.73 158.496 260.726 158.496 260.726C158.496 260.726 131.505 254.223 113.516 260.726C95.5264 267.229 82.031 289.725 84.5338 302.233C87.0365 314.74 97.5729 323.913 97.5729 323.913L175.489 326.224L217.953 341.72L189.358 423.723L227.964 438.085V438.112Z" fill="#263238"/>
<path d="M267.523 362.016L268.518 402.291L238.541 403.024L234.227 354.683L267.523 362.016Z" fill="#FFBE9D"/>
<path d="M270.317 398.694L269.764 419.932C269.764 419.932 303.917 432.204 304.373 438.499L238.597 439.163L236.578 398.113L270.317 398.708V398.694Z" fill="#455A64"/>
<path d="M249.395 417.275C248.122 417.635 247.265 419.074 247.569 420.36C247.874 421.647 249.339 422.533 250.611 422.201C251.883 421.869 252.976 420.167 252.533 418.922C252.077 417.676 250.321 416.722 249.16 417.358" fill="#E0E0E0"/>
<g opacity="0.6">
<path d="M238.582 439.15L238.706 433.81L301.731 435.165C301.731 435.165 304.676 436.411 304.358 438.472L238.582 439.136V439.15Z" fill="white"/>
</g>
<path d="M270.828 419.586C270.828 419.905 269.21 420.071 267.647 421.122C266.043 422.132 265.255 423.53 264.951 423.405C264.661 423.35 265.117 421.413 267.039 420.181C268.947 418.922 270.897 419.296 270.828 419.586Z" fill="#263238"/>
<path d="M277.756 422.367C277.839 422.671 276.443 423.239 275.364 424.608C274.244 425.951 273.981 427.417 273.663 427.403C273.359 427.459 273.124 425.577 274.493 423.903C275.848 422.215 277.742 422.063 277.742 422.367H277.756Z" fill="#263238"/>
<path d="M281.752 430.586C281.462 430.655 280.992 429.05 281.808 427.293C282.596 425.522 284.103 424.802 284.255 425.079C284.435 425.342 283.467 426.297 282.831 427.763C282.153 429.216 282.084 430.572 281.766 430.599L281.752 430.586Z" fill="#263238"/>
<path d="M270.163 411.825C270.025 412.115 268.559 411.686 266.734 411.825C264.923 411.935 263.512 412.558 263.346 412.281C263.153 412.046 264.522 410.842 266.665 410.704C268.808 410.552 270.315 411.562 270.163 411.811V411.825Z" fill="#263238"/>
<path d="M250.017 250.169C250.017 250.169 267.978 248.73 269.983 268.238C271.988 287.747 273.952 378.757 273.952 378.757L231.972 382.258L225.473 289.255L158.508 260.753C158.508 260.753 238.028 247.692 250.03 250.183L250.017 250.169Z" fill="#263238"/>
<path d="M175.972 223.854C175.972 223.854 186.868 254.444 184.794 257.848C182.719 261.251 154.678 275.281 154.678 275.281L84.5321 302.232C84.5321 302.232 77.3281 290.763 77.3281 273.15C77.3281 255.537 101.733 223.84 101.733 223.84H175.972V223.854Z" fill="#263238"/>
<path d="M155.176 259.176C155.176 259.176 155.286 259.245 155.508 259.355C155.77 259.48 156.088 259.632 156.503 259.812C157.43 260.227 158.729 260.808 160.389 261.542C163.832 263.05 168.782 265.194 174.976 267.892C187.49 273.288 205.023 280.842 225.321 289.572L225.1 289.254C225.736 298.441 226.428 308.361 227.133 318.627C228.834 342.618 230.41 364.755 231.654 382.257L231.682 382.575L232 382.548C244.763 381.427 255.244 380.5 262.586 379.864C266.195 379.531 269.029 379.255 271.007 379.075C271.933 378.978 272.666 378.895 273.205 378.84C273.703 378.784 273.952 378.743 273.952 378.729C273.952 378.715 273.689 378.729 273.191 378.743C272.652 378.771 271.919 378.826 270.979 378.881C269.002 379.033 266.153 379.241 262.544 379.504C255.202 380.085 244.721 380.915 231.945 381.925L232.277 382.216C231.074 364.7 229.553 342.577 227.907 318.572C227.188 308.306 226.483 298.386 225.847 289.199V288.964L225.626 288.881C205.286 280.247 187.711 272.776 175.17 267.449C168.948 264.834 163.97 262.745 160.499 261.292C158.812 260.601 157.499 260.061 156.572 259.674C156.144 259.508 155.812 259.369 155.549 259.272C155.314 259.189 155.203 259.148 155.19 259.162L155.176 259.176Z" fill="#455A64"/>
<path d="M99.3833 262.234C99.3833 262.234 100.102 262.095 101.347 261.694C102.743 261.251 104.513 260.67 106.629 259.992C111.081 258.581 117.262 256.603 124.3 255.523C131.338 254.43 137.851 254.776 142.4 255.759C146.963 256.699 149.59 258.014 149.645 257.862C149.659 257.82 149.023 257.46 147.82 256.935C146.617 256.409 144.806 255.772 142.511 255.219C137.934 254.084 131.297 253.656 124.176 254.749C117.055 255.842 110.86 257.917 106.435 259.467C104.223 260.255 102.453 260.919 101.222 261.404C100.006 261.888 99.3419 262.178 99.3557 262.234H99.3833Z" fill="#455A64"/>
<path d="M109.297 246.115C109.311 246.239 111.648 245.783 115.436 246.073C117.331 246.212 119.571 246.488 122.073 246.779C124.576 247.083 127.314 247.415 130.162 247.955C135.859 248.965 140.768 250.957 143.906 253.06C147.073 255.122 148.566 257.003 148.677 256.907C148.705 256.879 148.387 256.381 147.654 255.592C146.921 254.803 145.801 253.71 144.211 252.617C141.086 250.348 136.066 248.232 130.3 247.208C127.424 246.668 124.659 246.35 122.156 246.087C119.653 245.838 117.386 245.603 115.464 245.534C113.542 245.464 111.979 245.575 110.928 245.741C109.864 245.907 109.297 246.087 109.311 246.129L109.297 246.115Z" fill="#455A64"/>
<path d="M140.283 0.325693C132.208 -1.04403 125.114 2.06898 118.311 6.62089C111.508 11.1728 106.378 18.0491 103.419 25.6863C100.308 33.7387 99.5477 42.7871 101.94 51.0747C104.332 59.3622 110.015 66.7781 117.703 70.6935C128.198 76.0341 141.638 74.1663 151.027 67.0686C160.415 59.9571 165.794 48.2107 166.237 36.4366C166.541 28.3289 164.605 20.0276 160.083 13.2897C155.548 6.55172 148.316 1.51556 140.297 0.339532" fill="#263238"/>
<path d="M117.333 27.7894C118.509 24.7041 118.052 21.2452 118.523 17.98C119.546 10.7716 125.353 4.98835 132.073 2.17972C138.323 -0.435209 145.956 0.132059 153.478 2.56712C158.635 4.24123 163.489 7.1467 166.932 11.3389C171.495 16.9008 173.099 24.7733 171.094 31.6772L134.217 26.309C130.76 29.173 127.234 32.0784 123.044 33.6695C121.813 34.14 120.5 34.4858 119.2 34.2783C117.9 34.0708 116.642 33.1853 116.338 31.9124C116.006 30.515 116.836 29.1453 117.347 27.8033L117.333 27.7894Z" fill="#263238"/>
<path d="M154.265 12.7504L122.075 19.5713C118.964 19.7788 116.516 22.3384 116.461 25.4653L116.848 95.1829C116.876 99.9423 118.466 104.563 121.383 108.327L124.453 112.284C131.45 121.318 145.636 120.405 150.974 110.305C151.347 109.6 151.61 108.977 151.72 108.479C151.831 107.856 151.997 107.441 152.025 106.902L152.633 100.108C152.951 93.8962 152.993 87.601 152.993 87.6563C152.993 87.6563 166.17 85.996 169.544 69.0059C171.217 60.5524 171.341 46.6061 171.065 35.1917C170.816 24.9119 164.511 12.0724 154.265 12.7504Z" fill="#FFBE9D"/>
<path d="M166.168 48.2658C166.168 49.428 165.187 50.3826 163.97 50.3965C162.767 50.4103 161.785 49.4971 161.785 48.3349C161.785 47.1727 162.767 46.2181 163.984 46.2043C165.187 46.1904 166.168 47.1036 166.168 48.2658Z" fill="#263238"/>
<path d="M167.759 42.3168C167.482 42.5936 165.864 41.293 163.514 41.21C161.163 41.0855 159.379 42.2338 159.144 41.9433C159.02 41.8049 159.324 41.3068 160.098 40.7811C160.859 40.2692 162.145 39.7849 163.61 39.8403C165.076 39.9094 166.293 40.4905 166.984 41.0716C167.689 41.6527 167.911 42.1785 167.772 42.303L167.759 42.3168Z" fill="#263238"/>
<path d="M145.039 47.7404C145.039 48.9026 144.058 49.8572 142.841 49.8711C141.638 49.8849 140.656 48.9717 140.656 47.8095C140.656 46.6474 141.638 45.6927 142.855 45.6789C144.058 45.665 145.039 46.5782 145.039 47.7404Z" fill="#263238"/>
<path d="M145.386 41.7495C145.095 42.0262 143.491 40.7256 141.127 40.6426C138.776 40.5181 136.993 41.6664 136.757 41.3759C136.633 41.2375 136.937 40.7395 137.712 40.2137C138.472 39.7018 139.758 39.2175 141.224 39.2729C142.689 39.3421 143.906 39.9232 144.597 40.5043C145.303 41.0853 145.524 41.6111 145.386 41.7356V41.7495Z" fill="#263238"/>
<path d="M152.453 59.6801C152.453 59.5417 153.918 59.348 156.31 59.1405C156.919 59.099 157.486 59.0021 157.61 58.6009C157.762 58.172 157.541 57.5079 157.278 56.8023C156.767 55.3219 156.241 53.7723 155.674 52.1535C153.462 45.5262 151.872 40.0889 152.148 40.0058C152.411 39.9228 154.43 45.2219 156.656 51.8491C157.182 53.4817 157.693 55.0451 158.177 56.5256C158.385 57.2173 158.744 58.006 158.398 58.9053C158.219 59.348 157.762 59.6524 157.375 59.7492C156.988 59.8461 156.642 59.8461 156.352 59.8461C153.96 59.8876 152.48 59.8461 152.466 59.7077L152.453 59.6801Z" fill="#263238"/>
<path d="M153.006 87.6559C153.006 87.6559 141.488 87.9465 130.371 80.6689C130.371 80.6689 135.667 92.7197 152.827 91.7928L153.02 87.6698L153.006 87.6559Z" fill="#EB996E"/>
<path d="M151.238 65.3255C150.436 64.1772 148.97 63.4992 147.491 63.5961C146.467 63.6652 145.417 64.1218 144.753 64.9243C144.103 65.7267 143.923 66.9166 144.462 67.7329C145.057 68.646 146.384 68.9089 147.518 68.6322C148.652 68.3555 149.648 67.6499 150.602 66.9443C150.864 66.7506 151.127 66.543 151.307 66.2663C151.473 65.9896 151.528 65.6299 151.335 65.3947" fill="#EB996E"/>
<path d="M145.457 61.0497C145.844 61.0497 145.747 63.6093 147.863 65.5048C149.978 67.4141 152.716 67.2342 152.716 67.5939C152.744 67.76 152.094 68.0644 150.932 68.0505C149.799 68.0505 148.167 67.6216 146.867 66.4594C145.568 65.2972 145.056 63.7891 145.014 62.7238C144.959 61.6446 145.263 61.022 145.443 61.0497H145.457Z" fill="#263238"/>
<path d="M145.251 34.7491C144.989 35.3856 142.652 34.9843 139.873 35.2057C137.093 35.3717 134.826 36.105 134.48 35.5101C134.328 35.2334 134.743 34.6385 135.669 34.0574C136.582 33.4763 138.034 32.9367 139.707 32.8122C141.38 32.7015 142.887 33.0197 143.869 33.4624C144.864 33.9052 145.362 34.4309 145.251 34.7353V34.7491Z" fill="#263238"/>
<path d="M167.483 31.9812C167.055 32.5069 165.451 31.8843 163.487 31.7736C161.538 31.6076 159.865 31.995 159.505 31.4139C159.353 31.1372 159.63 30.6115 160.376 30.1272C161.109 29.643 162.312 29.2832 163.653 29.3801C164.995 29.4769 166.142 30.0027 166.792 30.5838C167.456 31.1649 167.663 31.7183 167.47 31.9812H167.483Z" fill="#263238"/>
<path d="M111.429 22.8227C114.761 13.0132 129.335 -0.351967 139.65 0.575018L155.952 10.7995C154.846 16.4029 150.408 21.2177 144.905 22.7673C141.973 23.5975 138.447 23.7773 136.663 26.2401C134.838 28.772 135.806 32.5214 134.105 35.1225C131.755 38.7336 125.505 38.4431 123.721 42.3724C122.933 44.088 123.293 46.1633 122.477 47.8651C121.398 50.1341 115.549 52.9151 113.171 52.1126C110.793 51.3102 110.862 47.2286 110.129 45.0703C108.871 41.39 109.451 39.5084 109.935 37.4746C111.069 32.6598 109.852 27.4853 111.443 22.8088L111.429 22.8227Z" fill="#263238"/>
<path d="M120.195 54.2843C120.236 53.0115 118.881 49.9538 117.637 49.7048C114.304 49.0545 108.248 49.0822 107.861 57.6049C107.335 69.2545 119.13 67.3867 119.171 67.0546C119.199 66.7917 120.043 58.6841 120.195 54.2843Z" fill="#FFBE9D"/>
<path d="M115.812 62.475C115.812 62.475 115.605 62.6134 115.259 62.7517C114.914 62.8901 114.333 62.9731 113.738 62.7102C112.535 62.1983 111.581 60.206 111.623 58.103C111.637 57.0376 111.913 56.0415 112.328 55.2252C112.715 54.395 113.296 53.8139 113.918 53.7309C114.54 53.6202 114.955 54.0076 115.093 54.3397C115.232 54.6717 115.149 54.9069 115.218 54.9208C115.246 54.9484 115.481 54.7409 115.398 54.2567C115.356 54.0215 115.232 53.7448 114.969 53.5095C114.706 53.2743 114.291 53.136 113.863 53.1637C112.964 53.1913 112.121 53.98 111.664 54.8793C111.167 55.7786 110.835 56.8993 110.821 58.0891C110.793 60.4412 111.886 62.6964 113.545 63.2498C114.347 63.4988 115.052 63.2913 115.411 63.0284C115.785 62.7517 115.854 62.5027 115.812 62.475Z" fill="#EB996E"/>
<path d="M108.938 19.7927C108.979 16.1539 104.43 13.7604 100.877 12.9441C97.3231 12.1139 93.5759 13.1931 90.3818 14.9502C88.5151 15.9741 86.6346 17.4268 86.2198 19.5298C85.805 21.619 87.8099 24.1094 89.801 23.3623C85.9847 24.6767 84.0351 29.782 86.0262 33.2962C88.0173 36.8105 93.3961 37.779 96.4796 35.1779C95.4841 38.5123 93.3132 41.4869 90.4233 43.4516C96.4105 44.3094 102.771 41.7498 106.504 36.9765C110.238 32.2171 111.192 25.4238 108.924 19.8065L108.938 19.7927Z" fill="#263238"/>
<path d="M100.862 38.3318C100.779 38.3318 100.461 37.0175 100.433 34.8314C100.392 32.6454 100.71 29.6016 101.774 26.4194C102.853 23.251 104.429 20.6223 105.798 18.9067C107.153 17.191 108.204 16.3194 108.259 16.3886C108.481 16.5408 104.568 20.4147 102.507 26.6546C100.364 32.8806 101.138 38.318 100.876 38.318L100.862 38.3318Z" fill="#FF725E"/>
<path d="M152.565 7.27072C153.629 12.0163 160.847 18.0902 164 21.7843C170.028 28.8266 171.218 31.1648 171.162 46.9235C174.011 41.4862 176.195 36.1595 175.974 30.0164C175.753 23.8734 173.499 17.7304 169.226 13.3169C164.968 8.90332 158.635 6.39908 152.551 7.27072" fill="#263238"/>
<path d="M201.953 136.897C201.953 136.897 189.412 115.964 185.928 111.73C182.664 107.759 178.461 105.421 175.654 104.189C174.092 103.512 172.446 103.041 170.773 102.751L152.728 98.7521C152.728 98.7521 152.701 111.08 139.786 111.841C126.885 112.602 116.017 94.6152 116.017 94.6152C116.017 94.6152 95.1656 97.8389 90.174 100.412C85.1823 102.986 77.3423 106.237 73.0282 127.862L70 149.003L105.951 152.323L109.394 205.77L127.217 218.195C127.217 218.195 176.65 231.048 179.802 231.906C182.955 232.75 184.006 152.323 184.006 152.323C184.006 152.323 196.699 144.105 201.953 136.911V136.897Z" fill="#263238"/>
<path d="M178.28 127.903C178.28 127.903 178.571 128.429 178.972 129.439C179.386 130.449 179.912 131.93 180.493 133.784C181.668 137.492 182.954 142.735 183.673 148.643C184.392 154.551 184.406 159.947 184.171 163.835C184.046 165.772 183.908 167.349 183.742 168.414C183.59 169.493 183.493 170.088 183.438 170.074C183.382 170.074 183.396 169.466 183.465 168.386C183.534 167.307 183.604 165.744 183.659 163.807C183.77 159.947 183.659 154.592 182.968 148.726C182.249 142.874 181.046 137.658 180.009 133.922C179.497 132.054 179.041 130.56 178.709 129.522C178.391 128.485 178.239 127.903 178.28 127.89V127.903Z" fill="#455A64"/>
<path d="M176.747 215.469L109.063 200.72L105.938 152.309L75.8359 149.528C75.8359 149.528 76.9559 182.623 78.1036 192.46C79.7629 206.614 88.1284 225.915 93.0232 229.775C97.9181 233.635 179.789 231.892 179.789 231.892L176.747 215.455V215.469Z" fill="#FFBE9D"/>
<path d="M215.171 224.24C214.701 225.181 213.706 225.804 212.655 225.707C212.447 225.693 212.226 225.652 212.005 225.569C210.512 225.084 210.65 222.04 210.65 222.04L203.474 220.864C203.474 220.864 194.14 226.883 190.822 230.868C187.503 234.852 179.041 231.629 179.041 231.629L176.109 216.326L189.314 204.372C189.314 204.372 188.499 205.078 189.411 202.85C190.324 200.609 194.472 201.467 194.472 201.467C195.122 200.36 197.832 199.973 197.832 199.973L209.419 201.315C211.811 201.591 213.941 202.933 215.227 204.967L220.122 212.729C220.122 212.729 222.707 218.319 222.292 219.619C221.67 221.584 219.596 221.141 219.596 221.141C219.596 221.141 219.029 224.808 218.061 224.946C217.093 225.07 215.199 224.254 215.199 224.254L215.171 224.24Z" fill="#FFBE9D"/>
<path d="M190.52 213.255C190.52 213.38 192.068 213.228 194.543 213.338C197.005 213.463 200.42 213.892 204.001 215.109C205.785 215.704 207.43 216.438 208.868 217.199C210.265 217.987 211.731 218.638 212.173 219.661C212.394 220.159 212.298 220.671 212.049 221.045C211.8 221.418 211.468 221.668 211.178 221.778C210.569 222.027 210.182 221.861 210.168 221.93C210.14 221.944 210.528 222.249 211.274 222.055C211.634 221.958 212.049 221.709 212.394 221.28C212.74 220.865 212.934 220.132 212.671 219.468C212.422 218.79 211.841 218.264 211.233 217.835C210.597 217.42 209.947 217.005 209.2 216.604C207.748 215.787 206.061 215.026 204.236 214.418C200.586 213.172 197.074 212.813 194.557 212.827C192.041 212.854 190.506 213.186 190.52 213.269V213.255Z" fill="#EB996E"/>
<path d="M189.719 220.643C189.719 220.865 194.448 220.671 200.241 221.003C206.035 221.321 210.695 222.054 210.736 221.833C210.75 221.736 209.602 221.432 207.722 221.1C205.841 220.768 203.214 220.436 200.283 220.27C197.365 220.104 194.71 220.145 192.802 220.27C190.894 220.38 189.719 220.56 189.719 220.657V220.643Z" fill="#EB996E"/>
<path d="M215.103 223.936C215.103 223.936 215.2 223.507 215.255 222.705C215.297 221.902 215.352 220.754 215.255 219.315C215.2 218.596 215.131 217.807 214.937 216.963C214.757 216.119 214.356 215.22 213.803 214.431C212.766 212.854 211.314 211.208 209.461 209.99C207.622 208.772 205.783 207.749 203.917 207.195C202.064 206.642 200.335 206.503 198.911 206.434C197.473 206.379 196.326 206.42 195.524 206.434C194.722 206.462 194.293 206.503 194.293 206.559C194.293 206.683 196.063 206.739 198.884 206.946C200.294 207.071 201.967 207.264 203.709 207.832C205.452 208.385 207.249 209.423 209.033 210.585C210.817 211.775 212.172 213.283 213.236 214.805C214.356 216.271 214.564 217.945 214.743 219.343C215.02 222.151 214.951 223.936 215.117 223.922L215.103 223.936Z" fill="#EB996E"/>
<path d="M198.375 202.92C198.375 203.031 200.103 203.072 202.869 203.39C205.538 203.805 209.796 203.999 212.23 207.666C214.857 211.014 217.097 214.168 218.079 216.756C219.116 219.329 219.019 221.114 219.171 221.1C219.213 221.1 219.282 220.657 219.24 219.869C219.213 219.08 219.033 217.918 218.563 216.576C217.678 213.836 215.452 210.571 212.811 207.209C212.133 206.365 211.4 205.563 210.557 204.926C209.713 204.276 208.732 203.902 207.833 203.639C206.008 203.127 204.321 202.975 202.924 202.865C200.117 202.671 198.375 202.823 198.375 202.906V202.92Z" fill="#EB996E"/>
<path d="M193.354 228.405C193.354 228.405 193.603 228.239 194.045 227.879C194.543 227.478 195.179 226.966 195.981 226.315C197.696 224.987 200.24 223.106 203.586 221.072L203.42 221.099C205.564 221.459 207.97 221.874 210.583 222.317L210.334 222.013C210.32 222.594 210.348 223.175 210.472 223.77C210.597 224.351 210.776 224.987 211.288 225.499C211.551 225.748 211.924 225.9 212.242 225.942C212.56 226.025 212.906 226.053 213.252 225.997C213.929 225.9 214.579 225.541 215.035 225.015C215.146 224.89 215.256 224.738 215.353 224.586L215.422 224.475L215.45 224.42V224.392H215.464C215.561 224.351 214.662 224.683 215.049 224.545H215.063L215.284 224.641C215.588 224.766 215.893 224.877 216.211 224.973C216.529 225.07 216.847 225.153 217.192 225.222C217.358 225.25 217.538 225.278 217.732 225.278C217.911 225.278 218.119 225.278 218.395 225.153C218.796 224.863 218.948 224.531 219.1 224.199C219.239 223.867 219.363 223.548 219.46 223.216C219.654 222.552 219.806 221.888 219.916 221.182L219.501 221.473C220.428 221.639 221.534 221.418 222.17 220.56C222.46 220.159 222.696 219.674 222.668 219.121C222.64 218.623 222.53 218.18 222.419 217.737C221.921 215.98 221.202 214.292 220.442 212.577L220.428 212.535C219.598 211.221 218.713 209.81 217.815 208.398C217.261 207.513 216.708 206.641 216.155 205.77C215.602 204.926 215.118 203.985 214.344 203.224C213.597 202.477 212.712 201.882 211.744 201.494C210.79 201.079 209.726 200.983 208.785 200.886C204.941 200.457 201.291 200.042 197.862 199.654H197.82H197.779C197.101 199.765 196.479 199.931 195.871 200.152C195.276 200.401 194.64 200.664 194.211 201.315L194.612 201.19C193.382 200.692 191.971 200.678 190.893 201.398C189.814 202.103 189.317 203.252 189.054 204.331L189.137 204.179C185.348 207.596 182.251 210.377 180.038 212.369C179.015 213.31 178.199 214.057 177.591 214.624C177.038 215.15 176.748 215.427 176.775 215.455C176.789 215.468 177.107 215.233 177.702 214.749C178.338 214.209 179.195 213.49 180.246 212.604C182.5 210.654 185.652 207.942 189.51 204.594L189.579 204.538L189.607 204.441C189.856 203.487 190.34 202.449 191.225 201.896C192.096 201.315 193.34 201.328 194.364 201.757L194.612 201.868L194.765 201.633C195.013 201.245 195.566 200.955 196.12 200.747C196.673 200.54 197.295 200.388 197.903 200.291H197.82C201.236 200.692 204.9 201.121 208.73 201.577C209.712 201.688 210.624 201.771 211.495 202.159C212.367 202.504 213.169 203.044 213.846 203.722C214.524 204.386 214.994 205.272 215.561 206.143C216.114 207.015 216.653 207.886 217.22 208.772C218.119 210.183 219.004 211.594 219.833 212.909L219.806 212.867C220.566 214.541 221.271 216.229 221.755 217.903C221.866 218.319 221.977 218.747 221.99 219.121C222.032 219.453 221.866 219.813 221.645 220.103C221.23 220.698 220.386 220.878 219.681 220.767L219.322 220.712L219.266 221.058C219.156 221.708 219.018 222.372 218.838 222.995C218.672 223.59 218.409 224.309 218.091 224.545C218.077 224.545 217.953 224.586 217.801 224.572C217.662 224.572 217.51 224.545 217.358 224.531C217.054 224.475 216.764 224.406 216.459 224.309C216.155 224.212 215.865 224.116 215.575 224.005L215.367 223.922C215.74 223.784 214.855 224.116 214.938 224.074V224.102L214.911 224.143L214.855 224.24C214.786 224.351 214.703 224.475 214.607 224.572C214.247 224.987 213.749 225.278 213.224 225.361C212.961 225.402 212.698 225.389 212.436 225.319C212.145 225.278 211.966 225.195 211.786 225.043C211.108 224.337 211.012 223.064 210.998 222.04V221.777L210.749 221.736C208.135 221.321 205.716 220.947 203.572 220.615H203.476L203.407 220.643C200.047 222.76 197.544 224.711 195.885 226.094C195.055 226.8 194.433 227.367 194.018 227.754C193.603 228.156 193.409 228.363 193.423 228.377L193.354 228.405Z" fill="#EB996E"/>
<path d="M302.988 179.731L213.83 180.451C210.94 180.451 208.174 181.834 207.746 184.698L197.997 249.712H152.077C150.598 249.712 149.395 250.916 149.395 252.396C149.395 253.876 150.598 255.08 152.077 255.08H298.743L308.767 186.456C309.307 182.914 306.569 179.731 302.988 179.731Z" fill="#E0E0E0"/>
<path d="M302.989 179.731C302.989 179.731 303.473 179.676 304.399 179.87C305.298 180.077 306.694 180.631 307.801 182.125C308.354 182.858 308.769 183.841 308.907 184.975C309.059 186.124 308.727 187.341 308.575 188.642C308.202 191.27 307.773 194.3 307.289 197.69C305.326 211.318 302.505 230.965 299.02 255.122L298.993 255.357H298.758C260.802 255.385 210.927 255.412 156.461 255.44H152.631C152.037 255.468 151.221 255.44 150.599 255.052C149.963 254.707 149.479 254.125 149.23 253.448C148.69 252.092 149.34 250.418 150.612 249.74C151.221 249.366 152.037 249.338 152.617 249.366H154.498C159.517 249.366 164.495 249.366 169.404 249.366C179.221 249.366 188.776 249.366 197.998 249.366L197.653 249.657C201.165 226.371 204.428 204.649 207.373 185.155C207.47 183.924 208.037 182.582 209.019 181.751C209.987 180.894 211.217 180.437 212.434 180.243C213.679 180.05 214.854 180.16 216.029 180.119C217.204 180.119 218.366 180.105 219.527 180.091C224.16 180.064 228.64 180.036 232.954 179.994C241.582 179.939 249.56 179.884 256.806 179.842C271.283 179.773 282.815 179.704 290.765 179.662C294.72 179.662 297.762 179.662 299.85 179.648C300.873 179.648 301.648 179.648 302.201 179.648C302.726 179.648 303.003 179.676 303.003 179.676C303.003 179.676 302.74 179.704 302.201 179.718C301.648 179.718 300.873 179.745 299.85 179.773C297.762 179.801 294.706 179.842 290.765 179.897C282.815 179.981 271.283 180.119 256.806 180.271C249.56 180.34 241.582 180.423 232.954 180.506C228.64 180.548 224.16 180.589 219.527 180.631C218.366 180.631 217.204 180.658 216.029 180.658C214.854 180.7 213.651 180.603 212.517 180.783C211.383 180.963 210.263 181.392 209.406 182.153C208.535 182.914 208.065 183.979 207.954 185.197C205.05 204.691 201.815 226.413 198.33 249.712L198.289 250.002H197.985C188.776 250.002 179.207 250.002 169.39 250.002C164.481 250.002 159.517 250.002 154.484 250.002H152.604C151.94 249.989 151.442 250.002 150.944 250.293C149.963 250.805 149.479 252.078 149.893 253.115C150.087 253.627 150.46 254.084 150.944 254.347C151.442 254.637 151.94 254.665 152.617 254.637C153.889 254.637 155.162 254.637 156.448 254.637C210.913 254.665 260.788 254.707 298.744 254.72L298.467 254.956C302.048 230.812 304.952 211.18 306.971 197.566C307.483 194.162 307.939 191.146 308.326 188.517C308.478 187.203 308.824 185.999 308.686 184.906C308.575 183.813 308.174 182.858 307.649 182.139C306.598 180.658 305.229 180.091 304.358 179.87C303.459 179.648 302.975 179.69 302.975 179.662L302.989 179.731Z" fill="#263238"/>
<path d="M254.633 222.179C257.718 222.179 260.219 219.677 260.219 216.59C260.219 213.503 257.718 211 254.633 211C251.548 211 249.047 213.503 249.047 216.59C249.047 219.677 251.548 222.179 254.633 222.179Z" fill="white"/>
<path d="M201.621 254.485C201.746 254.513 204.58 237.952 207.954 217.517C211.328 197.068 213.955 180.479 213.831 180.465C213.706 180.437 210.872 196.998 207.498 217.447C204.124 237.883 201.497 254.472 201.621 254.499V254.485Z" fill="#263238"/>
</svg>
