<svg width="218" height="82" viewBox="0 0 218 82" fill="none" xmlns="http://www.w3.org/2000/svg">
<path d="M217 81C215.816 78.1681 212.595 72.6458 209.184 73.2122C205.774 73.7785 203.5 72.9764 202.789 72.5045C202.553 70.6166 201.653 66.699 199.947 66.1326C199.711 65.8966 198.811 65.5662 197.105 66.1326C196.868 66.1326 195.968 67.2652 194.263 71.7963C193.553 72.5043 191.847 73.0707 190.711 69.6723L187.158 59.7605L180.763 37.813C179.342 33.3291 173.374 28.8923 160.868 47.0168C156.132 52.4447 145.663 61.3182 141.684 53.3887C141.447 52.2088 140.689 49.8488 139.553 49.8488C138.416 49.8488 136.237 52.2088 135.289 53.3887C133.868 54.0968 130.884 54.6632 130.316 51.2648V45.6009C130.316 44.4209 129.321 42.2026 125.342 42.769L120.368 47.0168C118.947 48.4328 115.679 50.132 113.974 45.6009L113.263 34.2731C113.263 32.3852 112.126 29.1756 107.579 31.4412C103.789 33.3291 94.9316 36.5387 89.8158 34.2731C84.7 32.0076 77.7368 16.3374 74.8947 8.78558C73.7105 5.24565 70.0632 -1.12623 64.9474 1.70572C59.8316 4.53766 37 45.8367 34.3947 37.813C32.5 40.8809 27.1474 44.468 20.8947 34.2731C14.6421 24.0782 5.02632 25.3055 1.00001 27.1934" stroke="#2A96F9"/>
</svg>
