<svg width="218" height="82" viewBox="0 0 218 82" fill="none" xmlns="http://www.w3.org/2000/svg">
<path d="M1 81C2.18421 78.1681 5.40526 72.6458 8.81579 73.2122C12.2263 73.7785 14.5 72.9764 15.2105 72.5045C15.4474 70.6166 16.3474 66.699 18.0526 66.1326C18.2895 65.8966 19.1895 65.5662 20.8947 66.1326C21.1316 66.1326 22.0316 67.2652 23.7368 71.7963C24.4474 72.5043 26.1526 73.0707 27.2895 69.6723L30.8421 59.7605L37.2368 37.813C38.6579 33.3291 44.6263 28.8923 57.1316 47.0168C61.8684 52.4447 72.3368 61.3182 76.3158 53.3887C76.5526 52.2088 77.3105 49.8488 78.4474 49.8488C79.5842 49.8488 81.7632 52.2088 82.7105 53.3887C84.1316 54.0968 87.1158 54.6632 87.6842 51.2648V45.6009C87.6842 44.4209 88.6789 42.2026 92.6579 42.769L97.6316 47.0168C99.0526 48.4328 102.321 50.132 104.026 45.6009L104.737 34.2731C104.737 32.3852 105.874 29.1756 110.421 31.4412C114.211 33.3291 123.068 36.5387 128.184 34.2731C133.3 32.0076 140.263 16.3374 143.105 8.78558C144.289 5.24565 147.937 -1.12623 153.053 1.70572C158.168 4.53766 181 45.8367 183.605 37.813C185.5 40.8809 190.853 44.468 197.105 34.2731C203.358 24.0782 212.974 25.3055 217 27.1934" stroke="#2A96F9"/>
</svg>
