<svg width="50" height="53" viewBox="0 0 50 53" fill="none" xmlns="http://www.w3.org/2000/svg">
<rect x="5" y="25" width="42" height="27" rx="1" stroke="black" stroke-opacity="0.5" stroke-width="2"/>
<path d="M48 35H32.4754L30 37.4749V42.592L32.1392 45H47.8778" stroke="black" stroke-opacity="0.5" stroke-width="2"/>
<path d="M14.1154 23.7646V3.00026C14.1154 2.32381 14.4611 0.976775 15.8441 1.0003H34.8914C35.4059 1.02977 36.4288 1.44163 36.4041 2.85336V4.29451M36.4041 23.7646V7.4121M16.9864 24V5.82389C17.9001 5.80036 18.8077 4.55921 19.1473 3.94158H31.0943C31.3722 4.56902 32.1995 5.82389 33.2861 5.82389V24M13.8684 3.94158L1.92141 7.47092C1.4995 7.63758 0.742141 8.25326 1.08789 9.38264L5.44066 24M13.8684 7.08857L6.30505 9.38264C6.21243 10.0003 5.81729 11.3179 4.9776 11.6473L8.71297 24M36.4041 7.4121L43.5661 9.38264C43.6896 10.1375 44.1712 11.6473 45.1096 11.6473L41.9608 24M36.4041 7.4121V4.29451M36.4041 4.29451L47.9498 7.4121C48.4025 7.49053 49.234 7.99444 48.9376 9.38264L45.1096 24" stroke="black" stroke-opacity="0.5" stroke-width="2" stroke-linecap="round" stroke-linejoin="round"/>
<path d="M34.5 40.5C34.5 40.8293 34.4101 41.1048 34.2911 41.2833C34.1697 41.4654 34.057 41.5 34 41.5C33.943 41.5 33.8303 41.4654 33.7089 41.2833C33.5899 41.1048 33.5 40.8293 33.5 40.5C33.5 40.1707 33.5899 39.8952 33.7089 39.7167C33.8303 39.5346 33.943 39.5 34 39.5C34.057 39.5 34.1697 39.5346 34.2911 39.7167C34.4101 39.8952 34.5 40.1707 34.5 40.5Z" stroke="black" stroke-opacity="0.5"/>
<path d="M20.9622 24C20.3552 23.1782 20 22.1832 20 21.1111C20 18.2883 22.4624 16 25.5 16C28.5376 16 31 18.2883 31 21.1111C31 22.1832 30.6448 23.1782 30.0378 24" stroke="black" stroke-opacity="0.5"/>
<path d="M26.5 9C26.5 9.05695 26.4654 9.16971 26.2833 9.29108C26.1048 9.41012 25.8293 9.5 25.5 9.5C25.1707 9.5 24.8952 9.41012 24.7167 9.29108C24.5346 9.16971 24.5 9.05695 24.5 9C24.5 8.94305 24.5346 8.83029 24.7167 8.70892C24.8952 8.58988 25.1707 8.5 25.5 8.5C25.8293 8.5 26.1048 8.58988 26.2833 8.70892C26.4654 8.83029 26.5 8.94305 26.5 9Z" stroke="black" stroke-opacity="0.5"/>
<path d="M8.00307 36V30.5941C7.97189 30.0627 8.16519 29 9.18779 29H36" stroke="black" stroke-opacity="0.5" stroke-width="2" stroke-linecap="round"/>
</svg>
